<svg id="svg" version="1.1" xmlns="http://www.w3.org/2000/svg" xmlns:xlink="http://www.w3.org/1999/xlink" width="400" height="400" viewBox="0, 0, 400,400"><g id="svgg"><path id="path0" d="M89.200 95.653 C 89.200 96.636,89.051 97.611,88.870 97.820 C 88.688 98.029,88.313 99.010,88.036 100.000 C 85.346 109.615,75.368 119.748,66.000 122.378 C 65.010 122.656,63.787 123.045,63.281 123.242 C 62.776 123.439,61.606 123.606,60.681 123.613 C 59.116 123.625,59.054 123.666,59.776 124.213 C 60.204 124.536,60.976 124.800,61.493 124.800 C 70.941 124.800,84.980 137.279,88.043 148.400 C 88.316 149.390,88.688 150.371,88.870 150.580 C 89.051 150.789,89.205 151.779,89.212 152.780 C 89.228 155.126,89.602 154.459,90.976 149.644 C 93.690 140.123,99.499 132.845,108.071 128.223 C 110.817 126.742,116.349 124.800,117.819 124.800 C 118.274 124.800,118.996 124.536,119.424 124.213 C 120.151 123.663,120.104 123.625,118.684 123.613 C 116.837 123.597,112.511 122.311,109.800 120.971 C 99.947 116.102,94.135 109.229,90.973 98.710 C 89.446 93.631,89.200 93.206,89.200 95.653 M124.243 179.832 C 123.797 180.994,123.965 302.388,124.414 303.226 C 124.821 303.987,126.092 304.000,200.206 304.000 L 275.585 304.000 275.802 303.100 C 275.921 302.605,275.970 274.570,275.910 240.800 L 275.800 179.400 200.143 179.299 C 131.412 179.207,124.464 179.256,124.243 179.832 M205.811 222.043 C 215.168 226.424,216.419 239.066,208.140 245.576 L 207.000 246.472 206.800 261.136 L 206.600 275.800 200.000 275.800 L 193.400 275.800 193.200 261.200 L 193.000 246.600 190.938 244.681 C 179.569 234.099,191.799 215.484,205.811 222.043 " stroke="none" fill="#fbb434" fill-rule="evenodd"></path><path id="path1" d="M182.800 13.223 L 181.400 14.425 182.900 13.573 C 183.725 13.104,184.400 12.559,184.400 12.360 C 184.400 11.859,184.370 11.875,182.800 13.223 M217.970 14.132 C 218.989 15.254,219.208 15.393,219.187 14.900 C 219.181 14.735,218.686 14.254,218.087 13.832 L 217.000 13.064 217.970 14.132 M165.000 27.012 C 164.340 27.553,163.954 27.997,164.142 27.998 C 164.330 27.999,165.019 27.550,165.673 27.000 C 166.327 26.450,166.713 26.006,166.531 26.014 C 166.349 26.022,165.660 26.471,165.000 27.012 M238.344 29.576 C 238.864 30.029,239.479 30.400,239.711 30.400 C 240.203 30.400,240.179 30.380,238.600 29.455 L 237.400 28.753 238.344 29.576 M280.866 52.300 C 280.902 52.465,280.808 53.140,280.656 53.800 C 280.276 55.459,279.745 58.156,279.237 61.000 C 279.002 62.320,278.468 65.200,278.051 67.400 C 277.634 69.600,277.072 72.660,276.802 74.200 C 276.365 76.696,273.738 88.590,272.210 95.000 C 269.786 105.160,268.666 109.634,268.180 111.090 C 267.870 112.020,267.264 114.090,266.834 115.690 C 264.465 124.500,262.818 129.875,259.166 140.715 L 256.028 150.029 255.914 164.608 L 255.800 179.187 265.800 179.294 L 275.800 179.400 275.910 240.800 C 275.970 274.570,275.921 302.605,275.802 303.100 L 275.585 304.000 219.792 304.000 C 180.140 304.000,164.000 304.125,164.000 304.432 C 164.000 305.562,138.587 330.355,130.000 337.601 C 128.570 338.808,127.310 339.886,127.200 339.998 C 127.090 340.109,125.843 341.185,124.429 342.389 C 123.014 343.594,121.483 344.954,121.025 345.411 L 120.193 346.244 121.082 347.122 C 121.571 347.605,122.188 348.000,122.452 348.000 C 122.717 348.000,122.821 348.112,122.685 348.249 C 122.548 348.385,123.163 349.195,124.051 350.049 C 125.740 351.671,126.487 352.096,125.549 350.900 C 125.051 350.266,125.066 350.251,125.700 350.749 C 126.085 351.051,126.400 351.454,126.400 351.644 C 126.400 352.214,127.739 353.600,128.289 353.600 C 128.570 353.600,128.800 353.750,128.800 353.933 C 128.800 354.576,131.716 357.176,132.156 356.925 C 132.400 356.786,132.480 356.806,132.333 356.969 C 132.051 357.285,133.371 358.800,133.929 358.800 C 134.110 358.800,135.222 359.700,136.400 360.800 C 137.578 361.900,138.707 362.800,138.910 362.800 C 139.113 362.800,139.759 363.295,140.345 363.900 C 142.036 365.644,144.696 367.600,145.377 367.600 C 145.719 367.600,146.000 367.870,146.000 368.200 C 146.000 368.530,146.181 368.800,146.403 368.800 C 146.624 368.800,147.197 369.250,147.675 369.800 C 148.153 370.350,148.877 370.800,149.285 370.800 C 149.692 370.800,150.127 371.066,150.252 371.392 C 150.377 371.717,151.137 372.383,151.940 372.871 C 152.743 373.359,153.492 373.888,153.604 374.047 C 153.716 374.206,154.074 374.395,154.400 374.468 C 154.726 374.541,155.471 375.095,156.057 375.700 C 156.642 376.305,157.369 376.800,157.672 376.800 C 157.975 376.800,158.483 377.160,158.800 377.600 C 159.117 378.040,159.594 378.400,159.860 378.400 C 160.125 378.400,160.626 378.683,160.971 379.029 C 161.317 379.374,161.600 379.527,161.600 379.367 C 161.600 379.208,161.936 379.465,162.347 379.939 C 162.758 380.412,163.398 380.800,163.771 380.800 C 164.143 380.800,164.336 380.980,164.200 381.200 C 164.064 381.420,164.233 381.600,164.576 381.600 C 164.919 381.600,165.200 381.780,165.200 382.000 C 165.200 382.220,165.478 382.400,165.817 382.400 C 166.156 382.400,166.820 382.760,167.292 383.200 C 167.764 383.640,168.387 384.000,168.675 384.000 C 168.964 384.000,169.200 384.180,169.200 384.400 C 169.200 384.620,169.470 384.800,169.800 384.800 C 170.130 384.800,170.400 384.980,170.400 385.200 C 170.400 385.420,170.670 385.600,171.000 385.600 C 171.330 385.600,171.600 385.780,171.600 386.000 C 171.600 386.220,171.960 386.400,172.400 386.400 C 172.840 386.400,173.200 386.580,173.200 386.800 C 173.200 387.020,173.393 387.200,173.628 387.200 C 173.863 387.200,174.841 387.740,175.800 388.400 C 176.759 389.060,177.650 389.600,177.780 389.600 C 177.910 389.600,178.752 390.065,179.652 390.633 C 180.551 391.201,181.159 391.457,181.002 391.203 C 180.819 390.907,181.018 390.929,181.558 391.267 C 182.021 391.556,182.400 391.929,182.400 392.096 C 182.400 392.263,182.760 392.400,183.200 392.400 C 183.640 392.400,184.000 392.580,184.000 392.800 C 184.000 393.020,184.360 393.200,184.800 393.200 C 185.240 393.200,185.600 393.380,185.600 393.600 C 185.600 393.820,185.945 394.000,186.367 394.000 C 186.788 394.000,187.193 394.135,187.267 394.300 C 187.453 394.720,190.763 396.400,191.404 396.400 C 191.695 396.400,191.993 396.535,192.067 396.700 C 192.140 396.865,193.100 397.448,194.200 397.995 C 195.300 398.542,196.310 399.141,196.444 399.327 C 196.959 400.042,201.457 400.130,202.817 399.452 C 203.535 399.093,204.365 398.800,204.661 398.800 C 204.958 398.800,205.200 398.654,205.200 398.475 C 205.200 398.296,205.830 397.902,206.600 397.600 C 207.370 397.298,208.000 396.904,208.000 396.725 C 208.000 396.546,208.360 396.400,208.800 396.400 C 209.240 396.400,209.601 396.265,209.603 396.100 C 209.607 395.741,211.544 394.800,212.280 394.800 C 212.566 394.800,212.800 394.620,212.800 394.400 C 212.800 394.180,213.160 394.000,213.600 394.000 C 214.040 394.000,214.400 393.820,214.400 393.600 C 214.400 393.380,214.760 393.200,215.200 393.200 C 215.640 393.200,216.000 393.020,216.000 392.800 C 216.000 392.580,216.360 392.400,216.800 392.400 C 217.240 392.400,217.600 392.220,217.600 392.000 C 217.600 391.780,217.918 391.600,218.307 391.600 C 218.696 391.600,219.677 391.150,220.486 390.600 C 221.295 390.050,222.048 389.600,222.159 389.600 C 222.269 389.600,223.160 389.060,224.138 388.400 C 225.116 387.740,226.115 387.200,226.358 387.200 C 226.601 387.200,226.800 387.041,226.800 386.847 C 226.800 386.652,227.115 386.393,227.500 386.271 C 228.147 386.066,230.002 385.013,230.983 384.294 C 232.696 383.039,234.373 382.106,234.567 382.301 C 234.695 382.429,234.800 382.323,234.800 382.067 C 234.800 381.810,235.171 381.600,235.624 381.600 C 236.077 381.600,236.336 381.420,236.200 381.200 C 236.064 380.980,236.233 380.800,236.576 380.800 C 236.919 380.800,237.200 380.620,237.200 380.400 C 237.200 380.180,237.470 380.000,237.800 380.000 C 238.130 380.000,238.400 379.820,238.400 379.600 C 238.400 379.380,238.670 379.200,239.000 379.200 C 239.330 379.200,239.600 379.020,239.600 378.800 C 239.600 378.580,239.778 378.400,239.997 378.400 C 240.215 378.400,240.909 377.860,241.540 377.200 C 242.171 376.540,242.900 376.000,243.160 376.000 C 243.421 376.000,243.851 375.819,244.117 375.599 C 245.288 374.626,248.818 372.400,249.190 372.400 C 249.416 372.400,249.600 372.262,249.600 372.094 C 249.600 371.926,250.320 371.344,251.200 370.800 C 252.080 370.256,252.800 369.674,252.800 369.506 C 252.800 369.338,252.993 369.200,253.229 369.200 C 253.464 369.200,253.891 368.975,254.178 368.700 C 254.464 368.425,255.452 367.570,256.372 366.800 C 257.293 366.030,258.750 364.770,259.611 364.000 C 262.015 361.848,262.400 361.548,262.400 361.827 C 262.400 361.968,262.922 361.526,263.560 360.842 C 264.199 360.159,264.836 359.600,264.977 359.600 C 265.347 359.600,265.274 359.662,272.309 353.400 C 275.705 350.378,292.400 333.658,292.400 333.279 C 292.400 333.046,293.840 331.401,295.600 329.624 C 297.360 327.848,298.800 326.231,298.800 326.031 C 298.800 325.831,299.340 325.158,300.000 324.535 C 300.660 323.912,301.200 323.261,301.200 323.088 C 301.200 322.915,301.785 322.176,302.500 321.446 C 304.308 319.599,307.975 314.892,308.496 313.749 C 308.734 313.227,309.080 312.800,309.264 312.800 C 309.449 312.800,309.600 312.545,309.600 312.233 C 309.600 311.922,309.735 311.607,309.900 311.533 C 310.307 311.352,312.497 308.400,312.224 308.400 C 312.105 308.400,312.546 307.886,313.204 307.257 C 313.862 306.628,314.400 305.908,314.400 305.657 C 314.400 305.406,314.550 305.200,314.732 305.200 C 314.915 305.200,315.312 304.705,315.614 304.100 C 315.916 303.495,316.518 302.595,316.952 302.100 C 317.385 301.605,317.609 301.200,317.449 301.200 C 317.289 301.200,317.606 300.785,318.153 300.278 C 318.700 299.771,319.205 299.105,319.274 298.797 C 319.343 298.488,319.791 297.829,320.269 297.331 C 320.747 296.833,321.254 296.060,321.396 295.613 C 321.538 295.166,321.822 294.800,322.027 294.800 C 322.232 294.800,322.400 294.455,322.400 294.033 C 322.400 293.612,322.542 293.207,322.715 293.133 C 323.224 292.918,325.200 289.317,325.200 288.605 C 325.200 288.246,325.380 288.064,325.600 288.200 C 325.820 288.336,326.000 288.167,326.000 287.824 C 326.000 287.481,326.180 287.200,326.400 287.200 C 326.620 287.200,326.800 286.932,326.800 286.605 C 326.800 286.277,327.115 285.641,327.500 285.192 C 327.885 284.742,328.223 284.200,328.250 283.987 C 328.278 283.774,328.322 283.409,328.350 283.176 C 328.378 282.943,328.580 282.864,328.800 283.000 C 329.020 283.136,329.200 282.877,329.200 282.424 C 329.200 281.971,329.391 281.600,329.624 281.600 C 329.857 281.600,329.949 281.440,329.828 281.245 C 329.707 281.050,329.877 280.668,330.204 280.396 C 330.532 280.124,330.800 279.643,330.800 279.327 C 330.800 279.011,330.980 278.864,331.200 279.000 C 331.420 279.136,331.600 278.877,331.600 278.424 C 331.600 277.971,331.780 277.600,332.000 277.600 C 332.220 277.600,332.400 277.240,332.400 276.800 C 332.400 276.360,332.580 276.000,332.800 276.000 C 333.020 276.000,333.200 275.539,333.200 274.976 C 333.200 274.396,333.373 274.060,333.600 274.200 C 333.820 274.336,334.000 274.077,334.000 273.624 C 334.000 273.171,334.146 272.800,334.325 272.800 C 334.504 272.800,334.898 272.170,335.200 271.400 C 335.502 270.630,335.896 270.000,336.075 270.000 C 336.254 270.000,336.400 269.759,336.400 269.464 C 336.400 269.169,337.300 267.161,338.400 265.000 C 339.500 262.839,340.400 260.831,340.400 260.536 C 340.400 260.241,340.580 260.000,340.800 260.000 C 341.020 260.000,341.162 259.865,341.116 259.700 C 340.961 259.149,342.504 254.800,342.855 254.800 C 343.045 254.800,343.200 254.365,343.200 253.833 C 343.200 253.302,343.378 252.807,343.597 252.733 C 343.815 252.660,344.033 252.118,344.081 251.529 C 344.130 250.940,344.292 250.533,344.442 250.626 C 344.591 250.718,344.952 249.985,345.244 248.997 C 345.536 248.009,345.915 247.200,346.087 247.200 C 346.259 247.200,346.400 246.840,346.400 246.400 C 346.400 245.960,346.580 245.600,346.800 245.600 C 347.020 245.600,347.200 245.060,347.200 244.400 C 347.200 243.740,347.380 243.200,347.600 243.200 C 347.820 243.200,348.000 242.840,348.000 242.400 C 348.000 241.960,348.180 241.600,348.400 241.600 C 348.620 241.600,348.800 241.060,348.800 240.400 C 348.800 239.740,348.980 239.200,349.200 239.200 C 349.420 239.200,349.600 238.675,349.600 238.033 C 349.600 237.392,349.774 236.807,349.987 236.733 C 350.200 236.660,350.419 236.015,350.472 235.300 C 350.526 234.585,350.712 234.000,350.885 234.000 C 351.058 234.000,351.200 233.640,351.200 233.200 C 351.200 232.760,351.358 232.400,351.550 232.400 C 351.743 232.400,351.900 231.930,351.900 231.355 C 351.900 230.779,352.058 230.194,352.250 230.055 C 352.443 229.915,352.661 229.350,352.735 228.800 C 352.809 228.250,353.034 227.629,353.235 227.420 C 353.436 227.211,353.600 226.714,353.600 226.315 C 353.600 225.916,353.758 225.277,353.951 224.895 C 354.607 223.596,355.251 221.206,355.038 220.861 C 354.921 220.672,355.084 220.176,355.400 219.759 C 355.716 219.342,355.980 218.415,355.987 217.700 C 355.994 216.985,356.142 216.400,356.315 216.400 C 356.488 216.400,356.673 215.840,356.725 215.155 C 356.777 214.471,356.995 213.583,357.210 213.182 C 357.424 212.781,357.600 212.021,357.600 211.493 C 357.600 210.965,357.721 210.412,357.870 210.264 C 358.018 210.116,358.195 209.591,358.264 209.097 C 358.753 205.569,358.926 204.769,359.242 204.574 C 359.439 204.452,359.600 203.654,359.600 202.800 C 359.600 201.946,359.780 201.136,360.000 201.000 C 360.220 200.864,360.400 199.673,360.400 198.353 C 360.400 197.018,360.561 196.052,360.763 196.177 C 360.963 196.300,361.227 195.456,361.350 194.301 C 361.842 189.678,362.094 188.183,362.439 187.820 C 362.637 187.611,362.800 186.576,362.800 185.520 C 362.800 184.464,362.980 183.600,363.200 183.600 C 363.435 183.600,363.600 182.208,363.600 180.224 C 363.600 178.367,363.758 176.749,363.951 176.630 C 364.145 176.511,364.330 174.937,364.363 173.134 C 364.395 171.331,364.608 169.631,364.835 169.357 C 365.063 169.083,365.216 168.621,365.177 168.330 C 364.913 166.382,365.264 159.480,365.600 160.000 C 365.906 160.474,365.989 160.385,365.994 159.580 C 365.997 159.019,365.775 158.318,365.500 158.021 C 365.100 157.590,365.100 157.539,365.500 157.765 C 365.899 157.990,366.000 148.966,366.000 113.224 L 366.000 68.400 361.024 68.400 C 358.137 68.400,355.943 68.232,355.800 68.000 C 355.655 67.766,353.337 67.600,350.200 67.600 C 347.256 67.600,344.751 67.445,344.634 67.255 C 344.516 67.065,343.022 66.877,341.313 66.837 C 339.604 66.798,338.033 66.593,337.823 66.383 C 337.612 66.172,336.227 66.000,334.744 66.000 C 333.261 66.000,331.936 65.820,331.800 65.600 C 331.664 65.380,330.483 65.200,329.176 65.200 C 327.859 65.200,326.800 65.022,326.800 64.800 C 326.800 64.580,325.821 64.400,324.624 64.400 C 323.427 64.400,322.336 64.220,322.200 64.000 C 322.064 63.780,321.369 63.600,320.656 63.600 C 319.943 63.600,319.189 63.438,318.980 63.241 C 318.771 63.044,317.880 62.785,317.000 62.667 C 316.120 62.549,314.590 62.270,313.600 62.047 C 312.610 61.825,311.260 61.530,310.600 61.391 C 309.940 61.253,309.040 60.986,308.600 60.799 C 308.160 60.611,307.080 60.324,306.200 60.160 C 304.392 59.823,304.431 59.834,303.556 59.444 C 303.202 59.286,302.436 59.107,301.855 59.045 C 301.274 58.983,300.679 58.812,300.533 58.666 C 300.386 58.520,299.757 58.400,299.133 58.400 C 298.510 58.400,298.000 58.220,298.000 58.000 C 298.000 57.780,297.460 57.600,296.800 57.600 C 296.140 57.600,295.600 57.420,295.600 57.200 C 295.600 56.980,295.060 56.800,294.400 56.800 C 293.740 56.800,293.200 56.620,293.200 56.400 C 293.200 56.180,292.660 56.000,292.000 56.000 C 291.340 56.000,290.800 55.858,290.800 55.685 C 290.800 55.512,290.398 55.340,289.906 55.303 C 289.414 55.266,288.949 55.048,288.873 54.818 C 288.796 54.588,288.386 54.400,287.961 54.400 C 287.537 54.400,286.832 54.220,286.395 54.000 C 285.958 53.780,285.242 53.420,284.805 53.200 C 284.368 52.980,283.648 52.800,283.205 52.800 C 282.762 52.800,282.400 52.620,282.400 52.400 C 282.400 52.180,282.040 52.000,281.600 52.000 C 281.160 52.000,280.830 52.135,280.866 52.300 M58.400 124.200 C 59.715 124.952,60.364 124.960,59.376 124.213 C 58.949 123.890,58.330 123.626,58.000 123.627 C 57.652 123.628,57.820 123.868,58.400 124.200 M89.400 155.200 C 89.250 155.673,89.217 156.150,89.327 156.260 C 89.437 156.370,89.650 156.073,89.800 155.600 C 89.950 155.127,89.983 154.650,89.873 154.540 C 89.763 154.430,89.550 154.727,89.400 155.200 M123.852 179.700 C 123.536 180.881,123.527 302.543,123.843 303.367 C 123.976 303.715,124.253 304.000,124.457 304.000 C 124.670 304.000,124.652 303.671,124.414 303.226 C 123.920 302.303,123.833 180.483,124.325 179.707 C 124.556 179.343,127.253 179.184,134.619 179.100 L 144.600 178.985 134.347 178.893 L 124.093 178.800 123.852 179.700 M186.300 179.100 C 193.835 179.161,206.165 179.161,213.700 179.100 C 221.235 179.039,215.070 178.989,200.000 178.989 C 184.930 178.989,178.765 179.039,186.300 179.100 M44.055 217.600 C 44.040 218.150,44.304 219.050,44.642 219.600 C 45.049 220.264,45.162 220.331,44.978 219.800 C 44.826 219.360,44.562 218.460,44.391 217.800 C 44.108 216.702,44.080 216.685,44.055 217.600 M95.600 319.058 C 95.600 319.274,96.185 319.979,96.900 320.625 L 98.200 321.800 97.000 320.402 C 96.340 319.633,95.755 318.928,95.700 318.835 C 95.645 318.743,95.600 318.843,95.600 319.058 " stroke="none" fill="#3c8cc4" fill-rule="evenodd"></path><path id="path2" d="M191.400 97.248 C 190.520 97.449,188.900 97.805,187.800 98.038 C 185.646 98.494,181.102 99.816,179.800 100.365 C 164.596 106.775,153.284 118.535,148.023 133.400 C 145.413 140.777,145.143 143.225,144.858 162.100 L 144.600 179.201 158.715 179.200 L 172.830 179.200 172.746 163.100 L 172.662 147.000 173.677 143.936 C 179.272 127.033,197.707 119.484,213.347 127.690 C 215.678 128.913,222.800 135.500,222.800 136.432 C 222.800 136.644,223.244 137.488,223.786 138.309 C 226.958 143.107,227.705 148.735,227.527 166.500 L 227.400 179.201 241.400 179.201 L 255.400 179.201 255.304 174.900 C 255.251 172.535,255.131 164.480,255.038 157.000 C 254.901 146.076,254.737 142.888,254.205 140.800 C 253.840 139.370,253.452 137.750,253.341 137.200 C 253.230 136.650,252.991 135.840,252.810 135.400 C 252.629 134.960,252.264 133.970,252.000 133.200 C 246.081 115.963,229.818 101.588,212.200 98.020 C 210.880 97.753,209.045 97.369,208.123 97.167 C 205.998 96.702,193.526 96.762,191.400 97.248 M119.424 124.213 C 118.996 124.536,118.827 124.800,119.047 124.800 C 119.267 124.800,119.796 124.536,120.224 124.213 C 120.651 123.890,120.820 123.625,120.600 123.625 C 120.380 123.625,119.851 123.890,119.424 124.213 " stroke="none" fill="#dcdddd" fill-rule="evenodd"></path><path id="path3" d="M197.847 0.922 C 197.213 1.405,195.785 2.655,194.673 3.700 C 193.562 4.745,192.511 5.600,192.337 5.600 C 192.163 5.600,191.217 6.404,190.235 7.386 C 189.252 8.369,187.994 9.287,187.438 9.426 C 186.882 9.566,186.466 9.824,186.513 10.000 C 186.561 10.176,186.472 10.293,186.316 10.260 C 186.160 10.227,185.592 10.798,185.053 11.528 C 184.514 12.259,183.111 13.469,181.936 14.218 C 180.761 14.967,179.975 15.584,180.189 15.590 C 180.403 15.595,180.133 15.909,179.589 16.286 C 178.324 17.163,177.727 17.632,176.771 18.500 C 176.347 18.885,175.865 19.203,175.700 19.206 C 175.535 19.210,174.419 20.110,173.221 21.206 C 172.022 22.303,170.777 23.200,170.454 23.200 C 170.131 23.200,169.984 23.317,170.127 23.460 C 170.477 23.811,169.171 24.771,168.323 24.787 C 167.950 24.794,167.389 25.166,167.076 25.613 C 166.763 26.060,166.099 26.504,165.599 26.600 C 165.100 26.696,164.581 26.899,164.446 27.051 C 164.311 27.203,164.540 27.205,164.957 27.055 C 165.612 26.818,165.642 26.867,165.185 27.419 C 164.894 27.769,164.340 27.973,163.954 27.872 C 163.568 27.771,163.151 27.950,163.029 28.270 C 162.906 28.589,162.597 28.721,162.341 28.564 C 162.053 28.385,161.984 28.451,162.161 28.736 C 162.333 29.016,162.003 29.388,161.323 29.684 C 160.705 29.952,159.773 30.580,159.252 31.079 C 158.730 31.579,158.178 31.910,158.025 31.815 C 157.871 31.720,157.493 31.993,157.185 32.421 C 156.876 32.850,156.386 33.200,156.095 33.200 C 155.804 33.200,155.180 33.560,154.708 34.000 C 154.236 34.440,153.538 34.800,153.158 34.800 C 152.778 34.800,152.407 34.935,152.333 35.100 C 152.101 35.622,149.656 37.200,149.078 37.200 C 148.773 37.200,148.198 37.560,147.800 38.000 C 147.402 38.440,146.834 38.800,146.538 38.800 C 146.242 38.800,146.000 38.980,146.000 39.200 C 146.000 39.420,145.730 39.600,145.400 39.600 C 145.070 39.600,144.800 39.780,144.800 40.000 C 144.800 40.220,144.464 40.400,144.054 40.400 C 143.644 40.400,142.879 40.735,142.354 41.145 C 141.440 41.859,139.580 42.621,139.236 42.423 C 139.146 42.371,138.910 42.618,138.711 42.973 C 138.513 43.327,138.181 43.512,137.972 43.383 C 137.764 43.254,137.311 43.432,136.965 43.778 C 136.619 44.124,136.189 44.317,136.010 44.206 C 135.830 44.095,135.576 44.286,135.444 44.630 C 135.284 45.045,134.934 45.170,134.400 45.000 C 133.863 44.829,133.515 44.955,133.353 45.380 C 133.219 45.729,132.904 45.973,132.654 45.922 C 132.405 45.872,131.419 46.331,130.464 46.943 C 129.510 47.555,128.385 48.081,127.964 48.113 C 127.544 48.144,127.200 48.268,127.200 48.387 C 127.200 48.710,124.972 49.637,124.024 49.708 C 123.571 49.742,123.200 49.868,123.200 49.987 C 123.200 50.246,121.036 51.236,120.205 51.358 C 119.885 51.405,119.498 51.569,119.345 51.722 C 119.192 51.875,118.726 52.000,118.310 52.000 C 117.893 52.000,117.664 52.180,117.800 52.400 C 117.938 52.624,117.631 52.800,117.103 52.800 C 116.031 52.800,114.008 53.648,114.003 54.100 C 114.001 54.265,113.359 54.400,112.576 54.400 C 111.729 54.400,111.253 54.562,111.400 54.800 C 111.536 55.020,111.277 55.200,110.824 55.200 C 110.371 55.200,110.000 55.380,110.000 55.600 C 110.000 55.820,109.385 56.000,108.633 56.000 C 107.882 56.000,107.207 56.174,107.133 56.387 C 107.060 56.600,106.427 56.818,105.728 56.870 C 105.028 56.923,104.544 57.109,104.651 57.283 C 104.759 57.457,104.522 57.604,104.124 57.610 C 103.726 57.615,102.360 57.968,101.089 58.393 C 99.818 58.818,98.542 59.076,98.253 58.965 C 97.964 58.854,97.517 59.018,97.259 59.329 C 96.984 59.661,96.288 59.835,95.575 59.752 C 94.846 59.668,94.457 59.769,94.603 60.005 C 94.737 60.222,94.612 60.427,94.324 60.459 C 94.036 60.492,93.530 60.547,93.200 60.583 C 92.870 60.618,92.060 60.875,91.400 61.153 C 90.740 61.431,89.715 61.588,89.121 61.502 C 88.528 61.415,88.125 61.479,88.227 61.644 C 88.502 62.089,87.026 62.457,85.830 62.240 C 85.255 62.135,84.871 62.191,84.977 62.364 C 85.144 62.632,81.787 63.393,78.910 63.739 C 78.421 63.798,77.896 63.971,77.744 64.123 C 77.591 64.275,76.777 64.400,75.933 64.400 C 75.090 64.400,74.400 64.565,74.400 64.766 C 74.400 64.967,73.275 65.219,71.900 65.326 C 69.518 65.511,67.657 65.753,65.000 66.226 C 63.073 66.568,61.571 66.720,58.800 66.853 C 57.370 66.921,56.106 67.107,55.991 67.265 C 55.876 67.423,53.581 67.594,50.891 67.645 C 48.201 67.695,46.000 67.881,46.000 68.057 C 46.000 68.234,43.345 68.428,40.100 68.489 L 34.200 68.600 34.117 113.959 C 34.072 138.906,34.189 159.606,34.376 159.959 C 34.707 160.579,35.018 164.078,35.447 172.000 C 35.560 174.090,35.821 175.971,36.027 176.180 C 36.232 176.389,36.400 177.838,36.400 179.400 C 36.400 180.962,36.563 182.411,36.763 182.620 C 37.100 182.972,37.223 183.754,37.846 189.500 C 37.972 190.655,38.237 191.600,38.437 191.600 C 38.637 191.600,38.800 192.500,38.800 193.600 C 38.800 194.700,38.980 195.600,39.200 195.600 C 39.420 195.600,39.600 196.579,39.600 197.776 C 39.600 198.973,39.780 200.064,40.000 200.200 C 40.220 200.336,40.400 201.247,40.400 202.224 C 40.400 203.201,40.580 204.000,40.800 204.000 C 41.020 204.000,41.200 204.542,41.200 205.205 C 41.200 205.868,41.361 206.723,41.557 207.105 C 41.753 207.487,42.129 208.969,42.393 210.399 C 42.657 211.828,43.039 213.100,43.243 213.226 C 43.447 213.353,43.528 214.124,43.423 214.941 C 43.313 215.802,43.389 216.330,43.605 216.197 C 43.809 216.071,44.089 216.470,44.225 217.084 C 44.362 217.698,44.589 218.560,44.729 219.000 C 44.869 219.440,45.002 219.980,45.024 220.200 C 45.046 220.420,45.286 221.384,45.559 222.342 C 45.831 223.300,45.953 224.344,45.831 224.663 C 45.709 224.981,45.778 225.137,45.984 225.010 C 46.191 224.882,46.479 225.413,46.624 226.189 C 46.770 226.965,47.049 227.600,47.245 227.600 C 47.440 227.600,47.570 227.735,47.534 227.900 C 47.435 228.355,48.000 230.510,48.424 231.295 C 48.631 231.677,48.800 232.264,48.800 232.600 C 48.800 232.936,48.956 233.523,49.146 233.905 C 49.806 235.229,50.488 237.404,50.524 238.300 C 50.544 238.795,50.704 239.200,50.880 239.200 C 51.056 239.200,51.200 239.549,51.200 239.976 C 51.200 240.403,51.380 240.864,51.600 241.000 C 51.820 241.136,52.000 241.515,52.000 241.843 C 52.000 242.171,52.360 243.184,52.800 244.094 C 53.240 245.005,53.603 246.121,53.606 246.575 C 53.611 247.254,53.681 247.294,54.000 246.800 C 54.313 246.315,54.389 246.374,54.394 247.105 C 54.397 247.603,54.580 248.368,54.800 248.805 C 55.020 249.242,55.380 249.958,55.600 250.395 C 55.820 250.832,56.000 251.552,56.000 251.995 C 56.000 252.438,56.180 252.800,56.400 252.800 C 56.620 252.800,56.800 253.250,56.800 253.800 C 56.800 254.350,56.980 254.800,57.200 254.800 C 57.420 254.800,57.600 255.160,57.600 255.600 C 57.600 256.040,57.780 256.400,58.000 256.400 C 58.220 256.400,58.400 256.760,58.400 257.200 C 58.400 257.640,58.560 258.000,58.755 258.000 C 58.950 258.000,59.228 258.794,59.374 259.765 C 59.526 260.779,59.896 261.628,60.245 261.762 C 60.578 261.890,60.739 262.176,60.602 262.397 C 60.465 262.619,60.554 262.800,60.800 262.800 C 61.046 262.800,61.145 262.965,61.020 263.168 C 60.895 263.370,61.063 263.806,61.393 264.136 C 61.847 264.590,61.872 264.784,61.496 264.936 C 61.195 265.058,61.266 265.149,61.677 265.168 C 62.123 265.189,62.303 265.463,62.206 265.968 C 62.122 266.404,62.330 266.841,62.686 266.978 C 63.032 267.110,63.210 267.324,63.081 267.452 C 62.953 267.580,63.198 268.060,63.625 268.519 C 64.215 269.152,64.281 269.428,63.901 269.670 C 63.501 269.924,63.502 269.989,63.905 269.994 C 64.183 269.997,64.813 270.855,65.305 271.900 C 65.797 272.945,66.328 273.896,66.484 274.014 C 67.022 274.419,67.968 277.099,67.684 277.413 C 67.528 277.587,67.598 277.615,67.840 277.477 C 68.102 277.328,68.493 277.871,68.805 278.815 C 69.093 279.689,69.417 280.316,69.525 280.208 C 69.814 279.920,70.773 281.299,70.787 282.025 C 70.794 282.368,71.115 283.008,71.500 283.446 C 72.488 284.572,73.143 285.627,73.645 286.900 C 73.883 287.505,74.271 288.000,74.506 288.000 C 74.741 288.000,74.819 288.115,74.678 288.255 C 74.538 288.395,74.823 289.070,75.311 289.755 C 75.799 290.440,76.207 291.180,76.218 291.400 C 76.228 291.620,76.475 291.748,76.767 291.684 C 77.090 291.613,77.210 291.797,77.073 292.154 C 76.949 292.477,77.107 292.957,77.424 293.220 C 77.741 293.483,78.000 293.946,78.000 294.249 C 78.000 294.552,78.191 294.800,78.424 294.800 C 78.657 294.800,78.745 294.965,78.621 295.166 C 78.497 295.367,78.531 295.592,78.698 295.666 C 79.129 295.857,80.800 298.296,80.800 298.735 C 80.800 298.937,81.074 299.330,81.410 299.608 C 81.745 299.886,81.940 300.193,81.843 300.290 C 81.746 300.387,81.967 300.785,82.333 301.173 C 83.870 302.802,84.408 303.663,84.150 304.080 C 83.999 304.325,84.057 304.412,84.278 304.275 C 84.499 304.139,84.932 304.516,85.240 305.114 C 85.548 305.711,86.115 306.435,86.500 306.723 C 86.885 307.010,87.203 307.640,87.206 308.123 C 87.211 308.836,87.285 308.888,87.600 308.400 C 87.952 307.856,88.061 308.033,87.982 309.022 C 87.973 309.144,88.378 309.607,88.882 310.052 C 89.387 310.497,89.575 310.747,89.300 310.607 C 88.419 310.159,88.764 310.845,90.000 312.000 C 90.660 312.617,91.200 313.245,91.200 313.397 C 91.200 313.926,92.695 315.571,92.947 315.320 C 93.186 315.081,93.362 315.813,93.237 316.530 C 93.206 316.711,93.320 316.785,93.490 316.693 C 93.661 316.602,94.115 316.858,94.500 317.263 C 94.885 317.669,95.065 318.006,94.900 318.013 C 94.735 318.020,94.933 318.278,95.340 318.586 C 95.774 318.915,95.955 319.349,95.778 319.635 C 95.599 319.924,95.643 320.021,95.885 319.871 C 96.403 319.551,97.704 320.952,97.301 321.397 C 97.135 321.579,97.206 321.610,97.458 321.466 C 97.877 321.227,98.454 322.013,98.584 323.000 C 98.613 323.220,98.853 323.355,99.118 323.300 C 99.383 323.245,99.600 323.345,99.600 323.522 C 99.600 323.699,100.230 324.531,101.000 325.372 C 101.770 326.213,102.400 327.021,102.400 327.168 C 102.400 327.314,104.200 329.309,106.400 331.600 C 108.600 333.891,110.400 335.998,110.400 336.283 C 110.400 336.567,110.649 336.800,110.954 336.800 C 111.259 336.800,111.798 337.242,112.152 337.783 C 112.796 338.766,116.129 342.179,118.986 344.781 C 120.470 346.132,120.516 346.145,121.151 345.381 C 121.508 344.951,122.970 343.610,124.400 342.400 C 125.830 341.190,127.090 340.109,127.200 339.998 C 127.310 339.886,128.570 338.808,130.000 337.601 C 138.587 330.355,164.000 305.562,164.000 304.432 C 164.000 304.129,158.055 304.000,144.043 304.000 C 126.213 304.000,124.060 303.933,123.843 303.367 C 123.527 302.543,123.536 180.881,123.852 179.700 L 124.093 178.800 134.402 178.800 L 144.711 178.800 144.934 161.700 C 145.180 142.911,145.412 140.778,148.023 133.400 C 153.284 118.535,164.596 106.775,179.800 100.365 C 181.116 99.810,185.659 98.491,187.800 98.042 C 188.900 97.811,190.645 97.438,191.677 97.211 C 194.006 96.701,205.847 96.669,208.123 97.167 C 209.045 97.369,210.880 97.753,212.200 98.020 C 229.818 101.588,246.081 115.963,252.000 133.200 C 252.264 133.970,252.629 134.960,252.810 135.400 C 252.991 135.840,253.230 136.650,253.341 137.200 C 253.452 137.750,253.844 139.370,254.214 140.800 C 254.776 142.976,254.916 146.256,255.075 160.900 C 255.186 171.122,255.418 178.400,255.633 178.400 C 255.849 178.400,256.000 172.578,256.000 164.257 L 256.000 150.113 259.152 140.757 C 262.818 129.874,264.462 124.509,266.834 115.690 C 267.264 114.090,267.870 112.020,268.180 111.090 C 268.666 109.634,269.786 105.160,272.210 95.000 C 273.738 88.590,276.365 76.696,276.802 74.200 C 277.072 72.660,277.634 69.600,278.051 67.400 C 278.468 65.200,279.002 62.320,279.237 61.000 C 279.925 57.144,280.434 54.674,280.769 53.564 C 281.117 52.414,280.483 51.200,279.536 51.200 C 278.756 51.200,276.807 50.273,276.803 49.900 C 276.801 49.735,276.491 49.600,276.113 49.600 C 275.252 49.600,272.061 48.428,271.011 47.727 C 270.577 47.437,269.942 47.200,269.599 47.200 C 269.257 47.200,268.729 46.856,268.426 46.436 C 268.124 46.016,267.635 45.765,267.341 45.878 C 267.047 45.991,266.692 45.784,266.552 45.419 C 266.411 45.051,266.042 44.852,265.727 44.973 C 265.183 45.181,263.281 44.216,262.745 43.458 C 262.604 43.260,262.300 43.214,262.069 43.357 C 261.838 43.500,261.464 43.298,261.237 42.908 C 261.010 42.519,260.819 42.338,260.812 42.507 C 260.800 42.807,256.407 40.584,253.600 38.858 C 252.830 38.385,251.750 37.772,251.200 37.497 C 249.952 36.873,247.868 35.510,247.596 35.141 C 247.484 34.988,246.906 34.741,246.312 34.592 C 245.719 34.443,245.023 34.069,244.767 33.761 C 244.511 33.452,244.009 33.197,243.651 33.194 C 243.085 33.189,243.078 33.137,243.600 32.800 C 244.085 32.486,244.028 32.411,243.300 32.406 C 242.805 32.403,242.400 32.264,242.400 32.098 C 242.400 31.931,241.905 31.573,241.300 31.302 C 239.205 30.362,237.561 29.186,237.801 28.798 C 237.937 28.579,237.771 28.513,237.421 28.647 C 237.009 28.806,236.800 28.655,236.800 28.200 C 236.800 27.755,236.590 27.595,236.200 27.745 C 235.835 27.885,235.600 27.745,235.600 27.387 C 235.600 27.064,235.247 26.800,234.816 26.800 C 234.384 26.800,233.709 26.468,233.316 26.063 C 232.922 25.657,232.015 24.988,231.300 24.576 C 230.585 24.164,230.000 23.686,230.000 23.514 C 230.000 23.341,229.749 23.200,229.442 23.200 C 229.136 23.200,227.921 22.303,226.742 21.207 C 225.564 20.111,224.375 19.211,224.100 19.207 C 223.825 19.203,223.600 19.063,223.600 18.896 C 223.600 18.729,222.340 17.631,220.801 16.457 C 219.253 15.276,218.118 14.133,218.262 13.899 C 218.406 13.667,218.336 13.592,218.107 13.734 C 217.878 13.875,217.468 13.723,217.196 13.396 C 216.924 13.068,216.525 12.800,216.309 12.800 C 216.092 12.800,215.561 12.350,215.129 11.800 C 214.696 11.250,214.066 10.800,213.728 10.800 C 213.328 10.800,213.201 10.576,213.362 10.155 C 213.539 9.694,213.437 9.577,213.005 9.743 C 212.672 9.871,212.400 9.801,212.400 9.587 C 212.400 9.374,212.207 9.200,211.971 9.200 C 211.734 9.200,210.652 8.345,209.566 7.300 C 206.826 4.664,206.000 3.959,206.000 4.256 C 206.000 4.397,205.370 3.844,204.600 3.027 C 203.830 2.211,203.197 1.691,203.194 1.872 C 203.191 2.052,203.056 2.010,202.894 1.777 C 201.646 -0.021,199.551 -0.375,197.847 0.922 M90.179 94.900 C 90.533 96.495,90.976 98.250,91.165 98.800 C 91.353 99.350,91.748 100.610,92.041 101.600 C 92.804 104.170,95.329 108.492,97.859 111.561 C 103.255 118.105,112.912 123.396,119.800 123.582 C 121.832 123.637,120.685 124.800,118.599 124.800 C 113.259 124.800,103.102 130.591,98.075 136.502 C 94.025 141.263,92.151 145.269,90.389 152.933 C 89.504 156.778,89.200 157.165,89.200 154.442 C 89.200 150.090,85.394 141.134,81.788 137.000 C 80.016 134.969,78.538 133.428,77.752 132.792 C 75.396 130.887,73.040 129.200,72.735 129.200 C 72.542 129.200,71.650 128.736,70.752 128.170 C 68.892 126.996,63.871 125.294,61.200 124.933 C 58.114 124.515,56.923 123.636,59.416 123.616 C 61.928 123.596,68.562 121.555,71.231 119.982 C 72.333 119.332,73.331 118.800,73.449 118.800 C 74.560 118.800,81.252 112.245,83.510 108.944 C 86.454 104.640,89.200 97.454,89.200 94.053 C 89.200 91.279,89.418 91.467,90.179 94.900 M195.200 124.658 C 185.296 126.630,176.907 133.985,173.904 143.330 C 172.658 147.206,172.438 151.227,172.693 165.503 L 172.930 178.806 200.165 178.703 L 227.400 178.600 227.522 166.200 C 227.693 148.723,226.937 143.075,223.786 138.309 C 223.244 137.488,222.800 136.644,222.800 136.432 C 222.800 135.502,215.678 128.913,213.356 127.695 C 208.420 125.105,200.014 123.699,195.200 124.658 " stroke="none" fill="#449cd3" fill-rule="evenodd"></path><path id="path4" d="M196.600 221.150 C 186.160 223.925,182.954 237.250,190.938 244.681 L 193.000 246.600 193.200 261.200 L 193.400 275.800 200.000 275.800 L 206.600 275.800 206.800 261.136 L 207.000 246.472 208.140 245.576 C 219.868 236.354,210.890 217.352,196.600 221.150 M106.451 332.298 C 107.344 333.434,107.926 334.000,108.202 334.000 C 108.587 334.000,106.658 331.648,106.251 331.622 C 106.059 331.610,106.149 331.914,106.451 332.298 M292.893 332.400 C 292.618 332.840,292.531 333.200,292.700 333.200 C 292.869 333.200,293.232 332.840,293.507 332.400 C 293.782 331.960,293.869 331.600,293.700 331.600 C 293.531 331.600,293.168 331.960,292.893 332.400 " stroke="none" fill="#16649a" fill-rule="evenodd"></path></g></svg>