<svg id="svg" version="1.1" xmlns="http://www.w3.org/2000/svg" xmlns:xlink="http://www.w3.org/1999/xlink" width="400" height="400" viewBox="0, 0, 400,400"><g id="svgg"><path id="path0" d="M182.422 1.515 C 145.168 10.218,123.047 38.702,121.105 80.469 C 119.834 107.806,113.810 118.880,90.882 136.031 C 59.774 159.299,37.477 192.448,22.630 237.500 C 15.315 259.698,15.964 265.784,26.140 270.407 C 34.250 274.091,42.696 269.985,67.118 250.489 C 68.054 249.742,68.141 250.380,67.699 254.714 C 65.605 275.240,74.145 308.826,86.390 328.223 L 88.242 331.157 83.219 335.981 C 68.127 350.473,60.159 370.230,65.119 380.859 C 75.476 403.052,130.675 407.374,152.454 387.698 L 155.495 384.950 162.709 386.971 C 187.166 393.820,212.834 393.820,237.291 386.971 L 244.505 384.950 247.546 387.698 C 268.894 406.985,323.169 403.242,334.614 381.694 C 340.045 371.466,331.895 350.480,316.905 336.096 L 311.778 331.177 314.083 327.431 C 326.122 307.865,334.366 274.963,332.302 254.723 C 331.859 250.382,331.946 249.742,332.882 250.489 C 357.304 269.985,365.750 274.091,373.860 270.407 C 383.391 266.077,384.503 259.529,378.763 241.549 C 363.600 194.062,341.031 159.925,308.908 135.890 C 289.018 121.008,280.495 107.393,279.126 88.314 C 278.580 80.708,276.939 78.125,272.656 78.125 C 267.756 78.125,266.115 81.104,266.630 89.061 C 268.094 111.659,278.240 128.880,299.219 144.376 C 330.344 167.367,354.138 203.377,367.459 247.654 C 372.125 263.161,371.419 263.099,348.228 245.968 C 323.549 227.737,324.163 228.054,319.925 231.387 C 317.821 233.042,317.779 233.230,318.293 238.613 C 320.064 257.176,320.182 260.311,319.442 269.118 C 318.050 285.675,314.553 298.300,307.258 313.104 C 301.762 324.257,301.563 324.326,301.560 315.085 C 301.520 199.830,208.117 131.798,141.414 198.439 C 125.149 214.688,115.242 232.501,119.886 237.145 C 124.362 241.621,127.496 239.672,134.375 228.135 C 164.034 178.389,215.917 170.501,252.588 210.164 C 274.450 233.810,289.058 276.093,289.062 315.740 L 289.063 322.496 284.004 323.377 C 265.773 326.551,245.268 348.023,241.325 368.066 C 240.305 373.248,240.365 373.210,228.906 376.098 C 208.345 381.281,185.020 380.671,164.467 374.414 L 159.873 373.015 158.504 367.448 C 153.322 346.368,134.153 326.539,115.880 323.356 L 110.704 322.455 111.166 310.251 C 111.726 295.492,113.443 283.108,116.598 271.094 C 120.589 255.893,119.958 252.344,113.262 252.344 C 106.397 252.344,99.939 277.783,98.586 310.156 L 98.047 323.047 95.029 317.736 C 82.771 296.164,77.965 270.136,81.248 243.093 C 82.408 233.543,82.200 232.490,78.775 230.544 C 75.604 228.742,73.738 229.791,53.220 244.914 C 28.388 263.215,27.824 263.290,32.558 247.654 C 46.181 202.661,68.942 168.223,100.781 144.431 C 124.456 126.740,132.240 111.849,133.607 81.641 C 134.815 54.941,142.291 39.142,160.114 25.625 C 195.314 -1.071,249.059 15.092,262.437 56.396 C 264.664 63.272,269.746 65.481,273.864 61.364 C 280.705 54.522,263.204 25.962,244.308 13.129 C 227.492 1.710,202.037 -3.067,182.422 1.515 M164.986 53.004 C 151.394 57.843,145.032 84.375,157.463 84.375 C 162.050 84.375,164.063 81.308,164.063 74.317 C 164.063 68.925,166.331 65.328,170.277 64.461 C 174.525 63.528,179.688 67.633,179.688 71.943 C 179.688 77.304,186.856 80.331,190.625 76.563 C 192.814 74.374,192.693 68.696,190.351 63.666 C 185.911 54.132,174.863 49.488,164.986 53.004 M222.505 52.655 C 208.714 56.368,201.454 78.125,214.006 78.125 C 217.558 78.125,220.313 75.426,220.313 71.943 C 220.313 67.633,225.475 63.528,229.723 64.461 C 233.669 65.328,235.938 68.925,235.938 74.317 C 235.938 83.228,240.791 87.151,246.379 82.756 C 249.291 80.465,249.416 69.707,246.599 63.672 C 242.255 54.363,232.585 49.941,222.505 52.655 M194.531 83.265 C 187.295 84.491,182.947 85.831,172.882 89.937 C 159.229 95.508,157.753 96.488,155.145 101.721 C 149.945 112.158,151.859 115.918,172.566 135.938 C 200.025 162.484,199.996 162.484,227.441 135.944 C 248.098 115.968,250.051 112.148,244.896 101.804 C 240.177 92.335,208.916 80.828,194.531 83.265 M206.202 96.085 C 218.658 98.447,235.000 106.778,234.113 110.313 C 233.419 113.079,202.195 142.969,200.000 142.969 C 197.805 142.969,166.581 113.079,165.887 110.313 C 164.316 104.053,193.642 93.703,206.202 96.085 M121.094 338.151 C 130.627 342.731,143.833 359.517,146.191 370.049 C 150.285 388.347,93.097 394.667,78.090 377.576 C 73.555 372.410,78.181 360.175,89.257 348.042 C 100.274 335.973,110.164 332.900,121.094 338.151 M298.438 338.124 C 311.400 344.447,327.608 369.321,323.174 376.087 C 313.335 391.103,265.421 391.319,254.425 376.396 C 250.926 371.648,257.620 357.291,268.359 346.507 C 279.484 335.338,287.911 332.989,298.438 338.124 " stroke="none" fill="#000000" fill-rule="evenodd"></path></g></svg>