<svg id="svg" xmlns="http://www.w3.org/2000/svg" xmlns:xlink="http://www.w3.org/1999/xlink" width="400" height="266.6666666666667" viewBox="0, 0, 400,266.6666666666667" version="1.1"><g id="svgg"><path id="path0" d="M189.333 34.532 C 186.327 34.883,183.327 35.308,182.667 35.475 C 182.007 35.642,180.327 36.007,178.933 36.286 C 174.772 37.118,167.631 39.198,166.072 40.033 C 165.752 40.204,164.946 40.497,164.279 40.685 C 156.128 42.983,140.351 52.558,132.222 60.141 C 121.897 69.773,114.569 79.366,109.005 90.533 C 106.092 96.380,105.382 98.065,103.834 102.800 C 103.306 104.413,102.595 106.573,102.255 107.600 C 101.914 108.627,101.558 109.887,101.465 110.400 C 101.372 110.913,101.068 112.053,100.790 112.933 C 100.512 113.813,100.166 115.493,100.022 116.667 C 99.878 117.840,99.571 119.693,99.340 120.784 C 96.159 135.803,98.975 160.253,105.684 175.867 C 106.189 177.040,106.805 178.480,107.055 179.067 C 107.820 180.863,110.662 186.452,111.556 187.917 C 116.264 195.635,118.369 198.591,122.959 203.923 C 126.501 208.038,130.458 211.892,135.032 215.681 C 139.169 219.109,140.052 219.771,143.867 222.303 C 149.482 226.030,154.678 228.910,158.933 230.653 C 159.593 230.923,161.153 231.580,162.400 232.112 C 170.769 235.683,182.303 238.455,192.000 239.226 C 196.274 239.565,210.676 239.390,213.600 238.962 C 220.131 238.008,225.304 236.954,228.800 235.863 C 229.900 235.520,231.340 235.104,232.000 234.937 C 232.660 234.771,233.800 234.415,234.533 234.145 C 237.651 232.999,240.514 231.864,242.133 231.132 C 243.087 230.702,244.527 230.053,245.333 229.692 C 248.551 228.250,253.553 225.437,258.133 222.492 C 275.066 211.607,290.223 192.782,297.391 173.733 C 299.227 168.855,301.600 161.022,301.600 159.841 C 301.600 159.549,301.889 158.175,302.243 156.788 C 304.611 147.500,304.862 130.664,302.800 119.467 C 301.113 110.307,299.379 104.210,296.659 97.867 C 293.763 91.115,291.088 85.847,288.805 82.400 C 280.063 69.198,270.919 59.751,259.067 51.677 C 252.780 47.395,245.853 43.732,238.744 40.931 C 233.482 38.859,229.736 37.771,220.824 35.728 C 213.134 33.965,198.839 33.422,189.333 34.532 M229.273 69.362 C 230.469 69.750,231.611 70.764,232.430 72.160 L 233.115 73.330 233.092 86.332 C 233.079 93.483,233.158 99.465,233.267 99.627 C 233.621 100.147,234.607 100.533,235.582 100.533 C 237.785 100.533,238.509 103.747,236.692 105.460 C 235.061 106.998,235.910 106.960,205.180 106.877 L 176.894 106.800 175.924 106.135 C 173.293 104.332,173.764 100.916,176.710 100.445 C 178.918 100.092,178.772 101.010,178.713 87.834 C 178.637 70.905,178.964 69.764,184.074 69.089 C 186.381 68.785,228.276 69.037,229.273 69.362 M183.163 73.043 L 182.533 73.553 182.457 86.275 C 182.389 97.439,182.431 99.074,182.796 99.632 L 183.212 100.267 205.822 100.267 C 230.881 100.267,229.400 100.377,229.433 98.507 C 229.629 87.152,229.290 73.557,228.800 73.067 C 227.982 72.249,184.172 72.226,183.163 73.043 M208.933 77.051 C 215.125 78.739,214.913 78.534,215.014 82.932 C 215.165 89.455,213.237 93.105,208.381 95.496 C 201.722 98.774,194.151 87.704,197.330 79.341 C 198.012 77.548,205.404 76.089,208.933 77.051 M202.533 79.752 C 199.914 80.432,199.200 81.253,199.200 83.585 C 199.200 85.974,199.747 86.400,202.814 86.400 C 206.026 86.400,205.867 86.569,205.867 83.154 C 205.867 78.932,205.832 78.896,202.533 79.752 M208.200 86.332 L 205.867 86.421 205.867 89.711 C 205.867 93.661,206.015 93.924,207.784 93.111 C 210.170 92.014,212.693 88.495,212.009 87.216 C 211.749 86.732,210.828 86.051,210.618 86.188 C 210.571 86.218,209.483 86.283,208.200 86.332 M168.690 120.348 C 170.322 120.771,172.000 122.039,172.000 122.848 C 172.000 124.359,169.632 124.804,168.000 123.600 C 166.361 122.391,164.000 122.926,164.000 124.507 C 164.000 125.593,164.603 125.970,167.867 126.925 C 172.530 128.289,174.042 130.759,172.418 134.360 C 170.742 138.077,163.217 138.653,160.265 135.290 C 158.391 133.157,160.556 131.157,162.724 133.019 C 164.951 134.932,166.507 135.215,167.980 133.976 C 169.507 132.691,168.770 130.941,166.533 130.543 C 160.286 129.431,157.943 125.362,161.426 121.675 C 162.975 120.035,165.622 119.552,168.690 120.348 M199.957 120.645 C 201.720 121.556,203.457 124.781,202.686 125.710 C 201.762 126.824,200.038 126.313,199.105 124.649 C 196.759 120.466,192.656 124.371,193.571 129.914 C 194.401 134.940,196.308 135.839,199.363 132.646 C 201.209 130.716,201.356 130.665,202.309 131.618 C 205.393 134.702,197.312 139.181,193.219 136.656 C 188.009 133.442,188.643 121.573,194.087 120.377 C 194.479 120.290,194.920 120.172,195.067 120.114 C 195.677 119.870,199.199 120.253,199.957 120.645 M136.118 120.859 C 136.607 121.557,136.747 135.637,136.274 136.520 C 135.769 137.463,133.924 137.406,133.271 136.427 C 132.820 135.751,133.039 121.273,133.508 120.754 C 134.142 120.054,135.595 120.112,136.118 120.859 M151.200 120.800 C 152.205 121.805,151.161 123.200,149.405 123.200 C 147.223 123.200,147.201 123.268,147.196 129.815 C 147.191 136.828,146.822 137.832,144.467 137.241 C 143.476 136.992,143.431 136.698,143.339 130.017 C 143.244 123.059,143.292 123.200,141.035 123.200 C 139.069 123.200,138.141 121.652,139.526 120.682 C 140.535 119.975,150.476 120.076,151.200 120.800 M187.082 120.919 C 188.103 122.477,187.242 123.048,183.642 123.200 C 180.133 123.348,179.733 123.555,179.733 125.221 C 179.733 126.829,180.474 127.341,182.711 127.279 C 184.943 127.218,185.867 127.621,185.867 128.658 C 185.867 129.715,184.946 130.133,182.622 130.133 C 180.265 130.133,179.733 130.528,179.733 132.275 C 179.733 134.060,180.105 134.262,183.454 134.300 C 187.332 134.344,188.617 135.323,186.737 136.802 C 185.684 137.631,176.998 137.531,176.378 136.682 C 175.646 135.680,175.840 121.209,176.593 120.682 C 177.729 119.886,186.536 120.085,187.082 120.919 M208.955 120.929 C 209.300 121.455,209.371 122.131,209.301 124.196 C 209.253 125.628,209.240 128.102,209.273 129.693 L 209.333 132.587 210.240 133.493 C 210.893 134.147,211.385 134.400,212.000 134.400 C 212.615 134.400,213.107 134.147,213.760 133.493 L 214.667 132.587 214.667 127.019 C 214.667 120.827,214.799 120.267,216.263 120.267 C 217.807 120.267,217.867 120.518,217.865 127.019 C 217.864 133.425,217.707 134.487,216.600 135.594 C 213.639 138.554,208.046 138.022,206.220 134.605 C 205.567 133.385,205.399 121.815,206.020 120.867 C 206.600 119.981,208.358 120.018,208.955 120.929 M232.012 120.532 C 235.120 121.396,236.333 126.357,233.972 128.553 C 232.663 129.771,232.728 131.689,234.159 134.031 C 234.837 135.142,234.833 136.692,234.151 137.057 C 232.820 137.770,230.923 136.780,230.431 135.116 C 229.333 131.394,228.644 130.410,227.133 130.404 C 225.489 130.397,225.067 131.055,225.067 133.618 C 225.067 136.978,223.745 138.412,222.133 136.800 C 221.382 136.048,221.299 121.575,222.041 120.754 C 222.548 120.195,230.185 120.025,232.012 120.532 M241.885 120.981 C 242.438 122.437,242.084 136.516,241.482 136.955 C 240.768 137.477,239.910 137.428,239.163 136.824 L 238.533 136.314 238.507 128.784 C 238.476 120.222,238.466 120.267,240.540 120.267 C 241.459 120.267,241.652 120.370,241.885 120.981 M256.474 120.682 C 257.803 121.613,256.760 123.200,254.819 123.200 C 252.653 123.200,252.533 123.576,252.533 130.395 C 252.533 136.933,252.461 137.173,250.489 137.173 C 248.863 137.173,248.800 136.914,248.800 130.170 C 248.800 123.244,248.787 123.200,246.676 123.200 C 244.720 123.200,243.876 122.169,244.834 120.950 L 245.372 120.267 250.627 120.267 C 254.951 120.267,255.986 120.340,256.474 120.682 M262.391 120.794 C 262.799 121.084,263.458 122.014,263.856 122.861 C 265.389 126.119,265.950 126.241,267.563 123.667 C 269.422 120.701,269.543 120.568,270.540 120.381 C 272.734 119.970,272.721 120.746,270.467 124.774 C 267.505 130.066,267.641 129.694,267.479 132.973 C 267.313 136.367,266.967 137.067,265.458 137.067 C 264.170 137.067,264.004 136.657,263.932 133.300 L 263.867 130.259 261.867 126.883 C 259.432 122.773,259.044 122.135,258.608 121.518 C 257.786 120.356,260.931 119.754,262.391 120.794 M225.659 123.615 C 224.311 124.559,224.989 127.231,226.670 127.601 C 229.713 128.269,232.236 125.923,230.647 123.903 C 229.971 123.043,226.741 122.857,225.659 123.615 M267.773 147.829 C 273.994 149.294,277.802 156.324,275.735 162.529 C 272.689 171.670,260.927 173.703,255.300 166.060 C 248.700 157.094,256.804 145.248,267.773 147.829 M166.004 151.735 C 171.267 153.546,174.000 157.327,174.000 162.800 L 174.000 166.000 172.961 167.733 C 171.090 170.856,167.354 173.867,165.353 173.867 C 164.121 173.867,163.465 174.456,163.029 175.956 C 162.556 177.583,161.675 178.645,160.745 178.708 C 160.409 178.731,157.957 178.761,155.296 178.775 C 150.129 178.802,149.333 179.005,149.333 180.299 C 149.333 181.191,150.230 181.333,155.834 181.333 C 161.123 181.333,161.327 181.353,161.998 181.933 C 163.237 183.005,163.406 186.698,162.293 188.397 C 161.591 189.468,161.150 189.549,155.451 189.659 C 152.443 189.717,149.836 189.854,149.657 189.964 C 149.026 190.355,149.275 192.112,150.067 192.851 C 151.370 194.066,151.726 194.133,156.862 194.133 C 161.896 194.133,162.400 194.232,162.400 195.221 C 162.400 196.071,161.713 196.207,156.709 196.347 L 151.685 196.487 150.136 197.444 C 148.144 198.673,147.362 198.665,145.737 197.400 L 144.454 196.400 140.027 196.453 C 135.347 196.509,133.767 196.287,133.478 195.533 C 133.038 194.386,134.100 194.133,139.358 194.133 L 144.257 194.133 145.462 192.979 C 146.756 191.739,147.010 190.782,146.247 190.019 C 145.890 189.661,145.041 189.609,140.447 189.662 C 133.297 189.746,132.917 189.501,133.106 184.921 C 133.252 181.343,133.272 181.333,140.032 181.333 C 145.714 181.333,146.400 181.204,146.400 180.130 C 146.400 178.839,145.626 178.658,140.243 178.691 C 133.456 178.733,133.064 178.520,133.071 174.807 C 133.078 170.896,133.434 170.703,140.680 170.682 C 146.140 170.666,146.400 170.603,146.400 169.296 C 146.400 168.184,146.139 168.134,140.241 168.124 C 133.007 168.112,132.855 168.013,133.111 163.485 C 133.304 160.074,133.527 159.994,142.869 159.982 C 151.123 159.971,151.468 159.904,152.184 158.182 C 154.322 153.037,160.887 149.974,166.004 151.735 M261.733 152.503 C 257.964 153.599,257.801 153.830,257.911 157.921 C 258.148 166.659,265.784 169.983,270.112 163.232 C 271.384 161.248,271.990 156.107,271.165 154.297 C 270.348 152.503,265.141 151.513,261.733 152.503 M267.800 155.944 C 269.210 157.169,268.173 159.273,266.221 159.149 L 264.933 159.067 264.849 157.888 C 264.668 155.354,266.063 154.434,267.800 155.944 M161.733 156.390 C 161.587 156.450,160.799 156.631,159.983 156.792 C 157.353 157.310,156.799 158.085,156.803 161.252 C 156.808 166.907,161.122 170.989,164.703 168.728 C 169.282 165.837,170.388 158.142,166.395 156.956 C 164.998 156.542,162.195 156.201,161.733 156.390 M165.400 159.946 C 166.506 160.902,165.869 162.242,164.137 162.601 C 163.010 162.836,162.770 163.133,162.540 164.574 C 162.340 165.837,161.813 166.011,160.793 165.153 C 159.585 164.136,159.730 162.838,161.066 162.712 C 162.322 162.592,162.666 162.247,162.671 161.101 C 162.678 159.289,163.996 158.731,165.400 159.946 M264.485 160.908 C 264.690 163.410,263.631 163.999,262.153 162.206 C 260.733 160.484,261.037 159.670,263.056 159.788 L 264.400 159.867 264.485 160.908 M250.867 165.708 C 251.197 165.815,251.590 166.131,251.739 166.411 C 254.838 172.201,262.577 175.079,269.291 172.938 C 272.308 171.975,272.333 171.997,274.144 177.161 C 275.127 179.965,276.917 179.733,254.238 179.733 C 231.625 179.733,232.940 179.897,234.308 177.253 C 234.551 176.784,234.900 175.860,235.084 175.200 C 235.268 174.540,235.661 173.400,235.958 172.667 C 236.255 171.933,236.889 170.282,237.366 168.996 C 238.555 165.794,238.603 165.761,242.360 165.600 C 246.500 165.422,250.129 165.468,250.867 165.708 M149.926 168.415 C 148.598 169.345,149.494 170.667,151.453 170.667 C 152.907 170.667,153.478 170.213,153.236 169.249 C 152.952 168.119,151.038 167.636,149.926 168.415 M219.153 179.727 C 227.403 183.716,228.943 193.738,222.299 200.202 L 220.584 201.871 220.582 205.269 C 220.580 209.109,220.256 211.743,219.599 213.244 C 213.807 226.484,200.586 232.098,188.890 226.284 C 166.759 215.281,175.141 182.936,199.824 184.091 L 203.248 184.252 204.624 182.982 C 209.501 178.482,214.338 177.398,219.153 179.727 M213.200 182.845 C 211.052 183.410,209.067 185.901,209.067 188.032 C 209.067 188.725,208.847 189.287,208.340 189.890 C 207.038 191.437,206.988 196.116,208.267 196.800 C 209.401 197.407,219.442 197.210,220.084 196.568 C 221.186 195.466,221.076 191.360,219.907 189.954 C 219.461 189.418,219.231 188.715,219.110 187.520 C 218.808 184.556,215.786 182.166,213.200 182.845 M275.110 183.333 C 276.562 185.269,275.125 190.125,272.800 191.140 C 271.738 191.603,245.385 191.882,238.831 191.499 L 235.396 191.298 234.356 190.183 L 233.315 189.068 233.391 186.208 C 233.464 183.460,233.493 183.335,234.133 183.008 C 235.426 182.348,274.604 182.659,275.110 183.333 M262.453 185.653 C 261.654 186.453,262.257 188.000,263.368 188.000 C 264.145 188.000,264.800 187.324,264.800 186.524 C 264.800 185.520,263.185 184.921,262.453 185.653 M269.047 185.886 C 268.433 186.500,268.677 187.188,269.765 187.910 C 270.883 188.653,272.122 186.629,271.147 185.653 C 270.655 185.162,269.661 185.272,269.047 185.886 M215.267 186.882 C 216.429 187.880,215.683 189.600,214.086 189.600 C 212.080 189.600,211.734 187.414,213.593 186.487 C 214.260 186.154,214.480 186.206,215.267 186.882 M193.751 188.803 C 189.689 192.703,189.929 195.011,194.460 195.631 C 196.833 195.956,197.067 195.575,197.067 191.381 C 197.067 186.500,196.560 186.106,193.751 188.803 M200.148 187.793 C 199.568 188.621,199.544 194.710,200.119 195.188 C 201.379 196.234,202.360 194.982,201.927 192.881 C 201.752 192.030,201.682 190.707,201.773 189.942 C 202.027 187.812,201.045 186.513,200.148 187.793 M187.137 189.886 C 185.908 190.602,186.041 192.267,187.328 192.267 C 188.105 192.267,188.800 191.358,188.800 190.341 C 188.800 189.537,188.075 189.339,187.137 189.886 M182.311 195.000 C 181.190 196.373,179.949 199.183,179.304 201.805 C 178.682 204.338,178.905 204.616,181.671 204.751 C 185.070 204.917,185.371 204.612,185.838 200.533 C 185.998 199.140,186.204 197.543,186.295 196.984 C 186.479 195.862,185.894 194.977,184.480 194.241 C 183.448 193.704,183.336 193.744,182.311 195.000 M189.463 197.775 C 188.804 198.434,188.622 199.103,188.415 201.618 C 188.179 204.488,188.157 204.469,191.916 204.697 C 196.638 204.984,197.067 204.729,197.067 201.632 C 197.067 198.934,196.873 198.693,194.458 198.390 C 193.401 198.257,192.181 197.965,191.748 197.741 C 190.729 197.214,190.013 197.225,189.463 197.775 M200.804 198.743 C 199.608 199.348,199.312 203.070,200.375 204.133 C 201.326 205.084,207.196 205.095,208.143 204.148 C 209.017 203.274,208.731 202.325,207.234 201.132 C 206.555 200.591,205.550 199.755,204.999 199.274 C 203.892 198.307,202.112 198.082,200.804 198.743 M213.733 203.178 C 212.363 203.311,212.133 203.410,212.133 203.867 C 212.133 204.496,215.900 205.015,216.835 204.514 C 217.443 204.189,217.490 203.317,216.912 203.095 C 216.468 202.925,216.298 202.929,213.733 203.178 M214.045 207.445 C 211.877 207.629,211.573 207.927,211.328 210.096 C 211.235 210.923,210.965 212.320,210.728 213.200 C 209.869 216.391,210.683 218.400,212.833 218.400 C 214.340 218.400,217.313 213.016,217.537 209.881 C 217.711 207.451,217.306 207.169,214.045 207.445 M179.441 208.026 C 179.091 208.376,178.929 208.800,179.010 209.159 C 180.273 214.800,182.598 218.942,184.190 218.387 C 186.140 217.707,186.894 216.303,186.298 214.461 C 186.073 213.768,185.777 212.144,185.641 210.854 C 185.304 207.669,185.100 207.467,182.225 207.467 C 180.321 207.467,179.919 207.547,179.441 208.026 M188.778 208.022 C 188.268 208.532,188.238 208.767,188.406 210.889 C 188.707 214.676,189.175 215.208,191.780 214.729 C 192.708 214.559,193.996 214.341,194.643 214.246 C 196.899 213.913,198.119 210.154,196.652 208.059 C 196.034 207.177,189.653 207.147,188.778 208.022 M200.617 207.672 C 200.079 208.021,199.809 209.120,199.777 211.090 C 199.735 213.707,199.944 213.889,203.709 214.517 L 206.704 215.017 207.361 214.360 C 208.289 213.432,209.033 209.492,208.492 208.363 L 208.127 207.600 204.530 207.533 C 202.552 207.497,200.791 207.559,200.617 207.672 M193.551 217.186 C 190.048 217.815,190.053 219.617,193.568 223.232 C 196.269 226.009,197.067 225.435,197.067 220.717 C 197.067 216.832,196.832 216.597,193.551 217.186 M200.527 217.285 C 199.181 218.375,199.515 224.800,200.918 224.800 C 202.920 224.800,207.044 218.626,205.626 217.750 C 205.453 217.643,201.495 216.800,201.163 216.800 C 201.142 216.800,200.856 217.018,200.527 217.285 M186.720 220.320 C 186.230 220.810,186.337 221.448,187.017 222.087 C 187.926 222.941,188.800 222.862,188.800 221.926 C 188.800 220.473,187.540 219.500,186.720 220.320 M208.476 220.467 C 207.062 222.088,207.387 223.272,209.027 222.475 C 210.122 221.943,210.630 220.999,210.140 220.408 C 209.690 219.866,208.977 219.891,208.476 220.467 " stroke="none" fill="#163d7e" fill-rule="evenodd"></path><path id="path1" d="M0.000 133.333 L 0.000 266.667 200.000 266.667 L 400.000 266.667 400.000 133.333 L 400.000 0.000 200.000 0.000 L 0.000 0.000 0.000 133.333 M213.758 34.621 C 218.631 35.190,222.807 36.044,229.067 37.752 C 237.270 39.990,243.718 42.657,251.733 47.126 C 266.429 55.321,278.444 66.754,288.805 82.400 C 291.088 85.847,293.763 91.115,296.659 97.867 C 299.379 104.210,301.113 110.307,302.800 119.467 C 304.862 130.664,304.611 147.500,302.243 156.788 C 301.889 158.175,301.600 159.549,301.600 159.841 C 301.600 161.022,299.227 168.855,297.391 173.733 C 290.223 192.782,275.066 211.607,258.133 222.492 C 253.553 225.437,248.551 228.250,245.333 229.692 C 244.527 230.053,243.087 230.702,242.133 231.132 C 240.514 231.864,237.651 232.999,234.533 234.145 C 233.800 234.415,232.660 234.771,232.000 234.937 C 231.340 235.104,229.900 235.520,228.800 235.863 C 225.304 236.954,220.131 238.008,213.600 238.962 C 210.676 239.390,196.274 239.565,192.000 239.226 C 182.303 238.455,170.769 235.683,162.400 232.112 C 161.153 231.580,159.593 230.923,158.933 230.653 C 154.678 228.910,149.482 226.030,143.867 222.303 C 140.052 219.771,139.169 219.109,135.032 215.681 C 130.458 211.892,126.501 208.038,122.959 203.923 C 118.369 198.591,116.264 195.635,111.556 187.917 C 110.662 186.452,107.820 180.863,107.055 179.067 C 106.805 178.480,106.189 177.040,105.684 175.867 C 103.325 170.377,100.962 162.221,99.464 154.400 C 97.852 145.991,97.787 128.118,99.340 120.784 C 99.571 119.693,99.878 117.840,100.022 116.667 C 100.166 115.493,100.512 113.813,100.790 112.933 C 101.068 112.053,101.372 110.913,101.465 110.400 C 101.558 109.887,101.914 108.627,102.255 107.600 C 102.595 106.573,103.306 104.413,103.834 102.800 C 109.380 85.837,122.970 66.671,136.982 56.052 C 146.091 49.149,157.962 42.466,164.279 40.685 C 164.946 40.497,165.752 40.204,166.072 40.033 C 167.631 39.198,174.772 37.118,178.933 36.286 C 180.327 36.007,182.007 35.642,182.667 35.475 C 188.765 33.928,204.196 33.504,213.758 34.621 M184.074 69.089 C 178.964 69.764,178.637 70.905,178.713 87.834 C 178.772 101.010,178.918 100.092,176.710 100.445 C 173.764 100.916,173.293 104.332,175.924 106.135 L 176.894 106.800 205.180 106.877 C 235.910 106.960,235.061 106.998,236.692 105.460 C 238.509 103.747,237.785 100.533,235.582 100.533 C 234.607 100.533,233.621 100.147,233.267 99.627 C 233.158 99.465,233.079 93.483,233.092 86.332 L 233.115 73.330 232.430 72.160 C 231.611 70.764,230.469 69.750,229.273 69.362 C 228.276 69.037,186.381 68.785,184.074 69.089 M228.800 73.067 C 229.290 73.557,229.629 87.152,229.433 98.507 C 229.400 100.377,230.881 100.267,205.822 100.267 L 183.212 100.267 182.796 99.632 C 182.431 99.074,182.389 97.439,182.457 86.275 L 182.533 73.553 183.163 73.043 C 184.172 72.226,227.982 72.249,228.800 73.067 M202.953 76.973 C 198.141 78.016,197.243 78.709,196.942 81.613 C 195.980 90.913,202.244 98.517,208.381 95.496 C 213.237 93.105,215.165 89.455,215.014 82.932 C 214.930 79.257,214.620 78.647,212.533 78.053 C 206.597 76.364,206.051 76.302,202.953 76.973 M205.591 79.716 C 205.742 79.999,205.867 81.547,205.867 83.154 C 205.867 86.569,206.026 86.400,202.814 86.400 C 199.747 86.400,199.200 85.974,199.200 83.585 C 199.200 81.253,199.914 80.432,202.533 79.752 C 205.001 79.112,205.266 79.109,205.591 79.716 M211.211 86.406 C 213.200 87.470,211.095 91.589,207.784 93.111 C 206.015 93.924,205.867 93.661,205.867 89.711 L 205.867 86.421 208.200 86.332 C 209.483 86.283,210.571 86.218,210.618 86.188 C 210.664 86.158,210.931 86.256,211.211 86.406 M163.473 120.273 C 162.222 120.567,160.397 122.525,160.000 123.999 C 159.153 127.145,161.684 129.680,166.533 130.543 C 168.770 130.941,169.507 132.691,167.980 133.976 C 166.507 135.215,164.951 134.932,162.724 133.019 C 160.556 131.157,158.391 133.157,160.265 135.290 C 163.217 138.653,170.742 138.077,172.418 134.360 C 174.042 130.759,172.530 128.289,167.867 126.925 C 164.603 125.970,164.000 125.593,164.000 124.507 C 164.000 122.926,166.361 122.391,168.000 123.600 C 169.065 124.386,170.915 124.514,171.581 123.848 C 173.682 121.746,167.951 119.219,163.473 120.273 M195.067 120.114 C 194.920 120.172,194.479 120.290,194.087 120.377 C 188.643 121.573,188.009 133.442,193.219 136.656 C 197.312 139.181,205.393 134.702,202.309 131.618 C 201.356 130.665,201.209 130.716,199.363 132.646 C 196.308 135.839,194.401 134.940,193.571 129.914 C 192.656 124.371,196.759 120.466,199.105 124.649 C 200.412 126.980,203.270 126.814,202.824 124.433 C 202.288 121.579,197.740 119.046,195.067 120.114 M133.508 120.754 C 133.039 121.273,132.820 135.751,133.271 136.427 C 133.924 137.406,135.769 137.463,136.274 136.520 C 136.747 135.637,136.607 121.557,136.118 120.859 C 135.595 120.112,134.142 120.054,133.508 120.754 M139.526 120.682 C 138.141 121.652,139.069 123.200,141.035 123.200 C 143.292 123.200,143.244 123.059,143.339 130.017 C 143.431 136.698,143.476 136.992,144.467 137.241 C 146.822 137.832,147.191 136.828,147.196 129.815 C 147.201 123.268,147.223 123.200,149.405 123.200 C 151.161 123.200,152.205 121.805,151.200 120.800 C 150.476 120.076,140.535 119.975,139.526 120.682 M176.593 120.682 C 175.840 121.209,175.646 135.680,176.378 136.682 C 176.998 137.531,185.684 137.631,186.737 136.802 C 188.617 135.323,187.332 134.344,183.454 134.300 C 180.105 134.262,179.733 134.060,179.733 132.275 C 179.733 130.528,180.265 130.133,182.622 130.133 C 184.946 130.133,185.867 129.715,185.867 128.658 C 185.867 127.621,184.943 127.218,182.711 127.279 C 180.474 127.341,179.733 126.829,179.733 125.221 C 179.733 123.555,180.133 123.348,183.642 123.200 C 187.242 123.048,188.103 122.477,187.082 120.919 C 186.536 120.085,177.729 119.886,176.593 120.682 M206.020 120.867 C 205.399 121.815,205.567 133.385,206.220 134.605 C 208.046 138.022,213.639 138.554,216.600 135.594 C 217.707 134.487,217.864 133.425,217.865 127.019 C 217.867 120.518,217.807 120.267,216.263 120.267 C 214.799 120.267,214.667 120.827,214.667 127.019 L 214.667 132.587 213.760 133.493 C 213.107 134.147,212.615 134.400,212.000 134.400 C 211.385 134.400,210.893 134.147,210.240 133.493 L 209.333 132.587 209.273 129.693 C 209.240 128.102,209.253 125.628,209.301 124.196 C 209.411 120.958,209.088 120.267,207.467 120.267 C 206.667 120.267,206.317 120.412,206.020 120.867 M222.041 120.754 C 221.299 121.575,221.382 136.048,222.133 136.800 C 223.745 138.412,225.067 136.978,225.067 133.618 C 225.067 131.055,225.489 130.397,227.133 130.404 C 228.644 130.410,229.333 131.394,230.431 135.116 C 230.923 136.780,232.820 137.770,234.151 137.057 C 234.833 136.692,234.837 135.142,234.159 134.031 C 232.728 131.689,232.663 129.771,233.972 128.553 C 236.333 126.357,235.120 121.396,232.012 120.532 C 230.185 120.025,222.548 120.195,222.041 120.754 M238.973 120.760 C 238.515 121.218,238.482 121.792,238.507 128.784 L 238.533 136.314 239.163 136.824 C 239.910 137.428,240.768 137.477,241.482 136.955 C 242.084 136.516,242.438 122.437,241.885 120.981 C 241.544 120.084,239.783 119.950,238.973 120.760 M244.834 120.950 C 243.876 122.169,244.720 123.200,246.676 123.200 C 248.787 123.200,248.800 123.244,248.800 130.170 C 248.800 136.914,248.863 137.173,250.489 137.173 C 252.461 137.173,252.533 136.933,252.533 130.395 C 252.533 123.576,252.653 123.200,254.819 123.200 C 256.760 123.200,257.803 121.613,256.474 120.682 C 255.986 120.340,254.951 120.267,250.627 120.267 L 245.372 120.267 244.834 120.950 M258.784 120.651 C 258.346 120.976,258.319 121.110,258.608 121.518 C 259.044 122.135,259.432 122.773,261.867 126.883 L 263.867 130.259 263.932 133.300 C 264.004 136.657,264.170 137.067,265.458 137.067 C 266.967 137.067,267.313 136.367,267.479 132.973 C 267.641 129.694,267.505 130.066,270.467 124.774 C 272.721 120.746,272.734 119.970,270.540 120.381 C 269.543 120.568,269.422 120.701,267.563 123.667 C 265.950 126.241,265.389 126.119,263.856 122.861 C 262.738 120.484,260.388 119.460,258.784 120.651 M230.647 123.903 C 232.236 125.923,229.713 128.269,226.670 127.601 C 224.989 127.231,224.311 124.559,225.659 123.615 C 226.741 122.857,229.971 123.043,230.647 123.903 M261.540 147.881 C 252.190 150.148,249.895 163.145,257.884 168.588 C 269.306 176.370,282.548 161.619,273.315 151.397 C 270.138 147.881,266.286 146.731,261.540 147.881 M160.667 151.382 C 157.022 152.207,153.490 155.037,152.184 158.182 C 151.468 159.904,151.123 159.971,142.869 159.982 C 133.527 159.994,133.304 160.074,133.111 163.485 C 132.855 168.013,133.007 168.112,140.241 168.124 C 146.139 168.134,146.400 168.184,146.400 169.296 C 146.400 170.603,146.140 170.666,140.680 170.682 C 133.434 170.703,133.078 170.896,133.071 174.807 C 133.064 178.520,133.456 178.733,140.243 178.691 C 145.626 178.658,146.400 178.839,146.400 180.130 C 146.400 181.204,145.714 181.333,140.032 181.333 C 133.272 181.333,133.252 181.343,133.106 184.921 C 132.917 189.501,133.297 189.746,140.447 189.662 C 145.041 189.609,145.890 189.661,146.247 190.019 C 147.010 190.782,146.756 191.739,145.462 192.979 L 144.257 194.133 139.358 194.133 C 134.100 194.133,133.038 194.386,133.478 195.533 C 133.767 196.287,135.347 196.509,140.027 196.453 L 144.454 196.400 145.737 197.400 C 147.362 198.665,148.144 198.673,150.136 197.444 L 151.685 196.487 156.709 196.347 C 161.713 196.207,162.400 196.071,162.400 195.221 C 162.400 194.232,161.896 194.133,156.862 194.133 C 151.726 194.133,151.370 194.066,150.067 192.851 C 149.275 192.112,149.026 190.355,149.657 189.964 C 149.836 189.854,152.443 189.717,155.451 189.659 C 161.150 189.549,161.591 189.468,162.293 188.397 C 163.406 186.698,163.237 183.005,161.998 181.933 C 161.327 181.353,161.123 181.333,155.834 181.333 C 150.230 181.333,149.333 181.191,149.333 180.299 C 149.333 179.005,150.129 178.802,155.296 178.775 C 157.957 178.761,160.409 178.731,160.745 178.708 C 161.675 178.645,162.556 177.583,163.029 175.956 C 163.465 174.456,164.121 173.867,165.353 173.867 C 167.354 173.867,171.090 170.856,172.961 167.733 L 174.000 166.000 174.000 162.800 C 174.000 155.472,167.436 149.852,160.667 151.382 M266.899 152.260 C 270.744 152.989,271.470 153.788,271.460 157.279 C 271.448 161.553,270.509 163.631,267.701 165.601 C 264.431 167.895,260.779 166.641,258.663 162.499 C 257.875 160.956,257.512 155.015,258.159 154.236 C 259.455 152.675,263.848 151.681,266.899 152.260 M265.534 155.391 C 264.960 155.532,264.739 156.340,264.849 157.888 L 264.933 159.067 266.221 159.149 C 267.845 159.252,268.267 158.907,268.267 157.475 C 268.267 155.935,267.059 155.014,265.534 155.391 M166.395 156.956 C 170.388 158.142,169.282 165.837,164.703 168.728 C 161.122 170.989,156.808 166.907,156.803 161.252 C 156.799 158.085,157.353 157.310,159.983 156.792 C 160.799 156.631,161.587 156.450,161.733 156.390 C 162.195 156.201,164.998 156.542,166.395 156.956 M163.467 159.417 C 162.872 159.610,162.675 160.025,162.671 161.101 C 162.666 162.247,162.322 162.592,161.066 162.712 C 159.730 162.838,159.585 164.136,160.793 165.153 C 161.813 166.011,162.340 165.837,162.540 164.574 C 162.770 163.133,163.010 162.836,164.137 162.601 C 165.460 162.327,165.867 161.968,165.867 161.075 C 165.867 159.987,164.538 159.069,163.467 159.417 M261.523 159.899 C 260.805 160.618,262.441 163.200,263.614 163.200 C 264.360 163.200,264.617 162.522,264.485 160.908 L 264.400 159.867 263.056 159.788 C 262.317 159.745,261.627 159.795,261.523 159.899 M242.360 165.600 C 238.603 165.761,238.555 165.794,237.366 168.996 C 236.889 170.282,236.255 171.933,235.958 172.667 C 235.661 173.400,235.268 174.540,235.084 175.200 C 234.900 175.860,234.551 176.784,234.308 177.253 C 232.940 179.897,231.625 179.733,254.238 179.733 C 276.917 179.733,275.127 179.965,274.144 177.161 C 272.333 171.997,272.308 171.975,269.291 172.938 C 262.577 175.079,254.838 172.201,251.739 166.411 C 251.240 165.478,249.235 165.305,242.360 165.600 M152.394 168.312 C 153.190 168.675,153.539 169.697,153.064 170.270 C 152.611 170.816,150.305 170.801,149.752 170.248 C 148.425 168.921,150.459 167.431,152.394 168.312 M209.793 179.468 C 207.786 180.337,206.664 181.100,204.624 182.982 L 203.248 184.252 199.824 184.091 C 175.141 182.936,166.759 215.281,188.890 226.284 C 200.586 232.098,213.807 226.484,219.599 213.244 C 220.256 211.743,220.580 209.109,220.582 205.269 L 220.584 201.871 222.299 200.202 C 232.099 190.667,222.125 174.130,209.793 179.468 M216.756 183.721 C 218.462 184.837,218.910 185.561,219.110 187.520 C 219.231 188.715,219.461 189.418,219.907 189.954 C 221.076 191.360,221.186 195.466,220.084 196.568 C 219.442 197.210,209.401 197.407,208.267 196.800 C 206.988 196.116,207.038 191.437,208.340 189.890 C 208.847 189.287,209.067 188.725,209.067 188.032 C 209.067 184.014,213.449 181.557,216.756 183.721 M234.133 183.008 C 233.493 183.335,233.464 183.460,233.391 186.208 L 233.315 189.068 234.356 190.183 L 235.396 191.298 238.831 191.499 C 245.385 191.882,271.738 191.603,272.800 191.140 C 275.125 190.125,276.562 185.269,275.110 183.333 C 274.604 182.659,235.426 182.348,234.133 183.008 M264.284 185.609 C 265.346 186.177,264.647 188.000,263.368 188.000 C 262.580 188.000,262.133 187.517,262.133 186.667 C 262.133 185.461,263.110 184.981,264.284 185.609 M271.147 185.653 C 271.675 186.182,271.527 187.394,270.879 187.848 C 270.214 188.314,269.555 188.036,268.867 187.000 C 268.167 185.946,270.224 184.731,271.147 185.653 M213.593 186.487 C 211.734 187.414,212.080 189.600,214.086 189.600 C 216.149 189.600,216.439 187.399,214.518 186.323 C 214.364 186.237,213.947 186.310,213.593 186.487 M196.747 187.520 C 197.463 188.236,197.164 194.857,196.393 195.362 C 195.075 196.226,190.902 194.982,190.715 193.669 C 190.414 191.550,195.545 186.319,196.747 187.520 M201.497 187.875 C 201.833 188.388,201.899 188.883,201.773 189.942 C 201.682 190.707,201.752 192.030,201.927 192.881 C 202.285 194.618,202.069 195.275,201.091 195.420 C 199.909 195.596,199.733 195.104,199.733 191.627 C 199.733 187.565,200.385 186.179,201.497 187.875 M188.800 190.341 C 188.800 191.956,187.060 192.966,186.400 191.733 C 185.897 190.794,186.886 189.626,188.200 189.608 C 188.680 189.602,188.800 189.748,188.800 190.341 M184.480 194.241 C 185.894 194.977,186.479 195.862,186.295 196.984 C 186.204 197.543,185.998 199.140,185.838 200.533 C 185.371 204.612,185.070 204.917,181.671 204.751 C 178.905 204.616,178.682 204.338,179.304 201.805 C 179.949 199.183,181.190 196.373,182.311 195.000 C 183.336 193.744,183.448 193.704,184.480 194.241 M191.748 197.741 C 192.181 197.965,193.401 198.257,194.458 198.390 C 196.873 198.693,197.067 198.934,197.067 201.632 C 197.067 204.729,196.638 204.984,191.916 204.697 C 188.157 204.469,188.179 204.488,188.415 201.618 C 188.742 197.638,189.606 196.633,191.748 197.741 M204.999 199.274 C 205.550 199.755,206.555 200.591,207.234 201.132 C 210.093 203.411,209.012 204.740,204.281 204.761 C 199.786 204.780,199.234 204.190,199.952 200.139 C 200.302 198.169,203.171 197.677,204.999 199.274 M216.912 203.095 C 217.490 203.317,217.443 204.189,216.835 204.514 C 215.900 205.015,212.133 204.496,212.133 203.867 C 212.133 203.410,212.363 203.311,213.733 203.178 C 216.298 202.929,216.468 202.925,216.912 203.095 M217.298 207.825 C 218.887 209.100,214.960 218.400,212.833 218.400 C 210.683 218.400,209.869 216.391,210.728 213.200 C 210.965 212.320,211.235 210.923,211.328 210.096 C 211.573 207.927,211.877 207.629,214.045 207.445 C 216.003 207.279,216.723 207.363,217.298 207.825 M184.922 207.987 C 185.242 208.341,185.472 209.258,185.641 210.854 C 185.777 212.144,186.073 213.768,186.298 214.461 C 186.894 216.303,186.140 217.707,184.190 218.387 C 182.598 218.942,180.273 214.800,179.010 209.159 C 178.653 207.569,183.647 206.579,184.922 207.987 M196.652 208.059 C 198.119 210.154,196.899 213.913,194.643 214.246 C 193.996 214.341,192.708 214.559,191.780 214.729 C 189.175 215.208,188.707 214.676,188.406 210.889 C 188.141 207.555,188.254 207.467,192.785 207.467 C 196.049 207.467,196.259 207.499,196.652 208.059 M208.492 208.363 C 209.033 209.492,208.289 213.432,207.361 214.360 L 206.704 215.017 203.709 214.517 C 199.944 213.889,199.735 213.707,199.777 211.090 C 199.835 207.505,199.911 207.448,204.530 207.533 L 208.127 207.600 208.492 208.363 M196.733 217.399 C 197.150 217.732,197.198 223.522,196.791 224.284 C 195.843 226.054,190.933 221.494,190.933 218.843 C 190.933 217.386,195.344 216.287,196.733 217.399 M203.293 217.201 C 205.872 217.694,205.867 217.691,205.867 218.819 C 205.867 221.358,201.193 225.838,200.020 224.424 C 199.080 223.292,200.054 216.799,201.163 216.800 C 201.183 216.800,202.142 216.980,203.293 217.201 M188.385 220.593 C 189.028 221.511,188.934 222.667,188.217 222.667 C 187.521 222.667,186.400 221.683,186.400 221.074 C 186.400 219.970,187.724 219.650,188.385 220.593 M210.140 220.408 C 210.630 220.999,210.122 221.943,209.027 222.475 C 207.387 223.272,207.062 222.088,208.476 220.467 C 208.977 219.891,209.690 219.866,210.140 220.408 " stroke="none" fill="#fbfbfb" fill-rule="evenodd"></path></g></svg>